Coordinates
version=1
nRows=26
nColumns=22
inDegrees=yes

Units are S.I. units (second, meters, Newtons, ...)
If the header above contains a line with 'inDegrees', this indicates whether rotational values are in degrees (yes) or radians (no).

endheader
time	pelvis_tilt	pelvis_list	pelvis_rotation	pelvis_tx	pelvis_ty	pelvis_tz	hip_flexion_r	hip_adduction_r	hip_rotation_r	knee_angle_r	ankle_angle_r	subtalar_angle_r	hip_flexion_l	hip_adduction_l	hip_rotation_l	knee_angle_l	ankle_angle_l	subtalar_angle_l	lumbar_extension	lumbar_bending	lumbar_rotation
      4.62000000	      0.34526301	     -9.41216997	    -83.67458261	      0.34539570	      0.95058869	      0.54525508	      1.82272076	      0.02638816	     -9.61278253	    -25.37784301	     12.53759747	     -0.43538295	     -2.54649236	      0.56428095	     -6.27058344	    -20.88024798	     20.66834577	    -13.01948860	    -14.14432367	      2.40122809	    -10.38227003
      4.63000000	      0.17970660	     -9.24502393	    -83.59890260	      0.34506193	      0.95081301	      0.54758684	      1.40105873	      0.27124599	     -9.90797179	    -24.52994604	     12.53163388	     -0.54360548	     -2.63239505	      0.34368419	     -6.28333034	    -20.62078490	     20.68312526	    -12.84641875	    -13.89470830	      2.49619105	    -10.33436836
      4.64000000	     -0.01796871	     -9.09021558	    -83.55584815	      0.34464353	      0.95111385	      0.54987146	      0.97066508	      0.55158995	    -10.18663135	    -23.65681856	     12.46106786	     -0.61809615	     -2.74134842	      0.08512432	     -6.33628442	    -20.33147363	     20.68365113	    -12.63576276	    -13.65616588	      2.61934541	    -10.24753764
      4.65000000	     -0.24382188	     -8.94831112	    -83.53940229	      0.34416656	      0.95147865	      0.55212331	      0.52759253	      0.86443071	    -10.43678332	    -22.75933249	     12.33198576	     -0.64260111	     -2.86963729	     -0.20697071	     -6.42680902	    -20.02572887	     20.67911960	    -12.41497703	    -13.42728879	      2.77119917	    -10.14260686
      4.66000000	     -0.48767355	     -8.83593939	    -83.54814455	      0.34363262	      0.95191900	      0.55433932	      0.05746374	      1.20179807	    -10.64671783	    -21.85173759	     12.15896540	     -0.62036753	     -3.04269255	     -0.52203808	     -6.54859213	    -19.68935974	     20.65825480	    -12.15758527	    -13.23164118	      2.93976464	     -9.99921262
      4.67000000	     -0.73601726	     -8.75546615	    -83.58841812	      0.34307457	      0.95242295	      0.55654059	     -0.44632731	      1.54638157	    -10.81118882	    -20.93512384	     11.96298330	     -0.54311134	     -3.26972402	     -0.84023936	     -6.69837203	    -19.32160266	     20.61244445	    -11.85011860	    -13.07102904	      3.11704074	     -9.82159837
      4.68000000	     -0.99043799	     -8.66997219	    -83.64059893	      0.34253008	      0.95290385	      0.55867998	     -0.93656977	      1.89402152	    -10.94474915	    -20.02133685	     11.70865675	     -0.46047392	     -3.48628728	     -1.16332799	     -6.88179046	    -18.95770235	     20.60600224	    -11.62950433	    -12.90648547	      3.30744375	     -9.67291548
      4.69000000	     -1.22323959	     -8.60622121	    -83.72277215	      0.34201210	      0.95339454	      0.56073018	     -1.44353755	      2.21424305	    -11.04212486	    -19.11091145	     11.45978191	     -0.34298311	     -3.74356840	     -1.45298294	     -7.08139242	    -18.56258147	     20.56676871	    -11.36878050	    -12.78519874	      3.48365777	     -9.47802065
      4.70000000	     -1.43166360	     -8.52840814	    -83.82129472	      0.34154450	      0.95381648	      0.56265714	     -1.92158541	      2.49918304	    -11.12348770	    -18.21607884	     11.22124107	     -0.21722846	     -3.98294693	     -1.70335691	     -7.28450088	    -18.16811438	     20.51594877	    -11.12069392	    -12.66578187	      3.64139534	     -9.27291049
      4.71000000	     -1.61175383	     -8.44512276	    -83.93166407	      0.34110830	      0.95416402	      0.56445454	     -2.37849881	      2.74714446	    -11.19809625	    -17.34188484	     11.01493557	     -0.07723787	     -4.21116372	     -1.91366297	     -7.48180683	    -17.77862645	     20.44691613	    -10.85621269	    -12.56125707	      3.77150690	     -9.05414794
      4.72000000	     -1.77388836	     -8.33270822	    -84.03297713	      0.34069807	      0.95438630	      0.56613478	     -2.78737867	      2.97308864	    -11.27195639	    -16.49009465	     10.78084046	      0.00998204	     -4.38110851	     -2.10268865	     -7.69275123	    -17.42928923	     20.43090767	    -10.67750368	    -12.43592738	      3.88380448	     -8.88487321
      4.73000000	     -1.92052659	     -8.23793887	    -84.13039974	      0.34027257	      0.95454871	      0.56772946	     -3.20306493	      3.18686081	    -11.33969923	    -15.65780316	     10.58224517	      0.10017673	     -4.55861332	     -2.27760144	     -7.89268102	    -17.09618428	     20.41177416	    -10.46521264	    -12.34351411	      3.97600646	     -8.71416787
      4.74000000	     -2.05504790	     -8.14132947	    -84.20611095	      0.33985727	      0.95462102	      0.56923880	     -3.59979108	      3.39040073	    -11.41282654	    -14.85328950	     10.41109336	      0.17550196	     -4.71223201	     -2.44375789	     -8.08731883	    -16.79362130	     20.41438273	    -10.24795368	    -12.25812598	      4.05665980	     -8.56488393
      4.75000000	     -2.18585142	     -8.05171801	    -84.26577075	      0.33941502	      0.95461952	      0.57069541	     -3.98699536	      3.59648831	    -11.48470295	    -14.07991156	     10.25400896	      0.23393128	     -4.85059879	     -2.61379772	     -8.27704419	    -16.52631778	     20.44286437	    -10.02509186	    -12.18152647	      4.12589408	     -8.44248648
      4.76000000	     -2.31964164	     -7.94107892	    -84.28581202	      0.33899205	      0.95450864	      0.57206822	     -4.33747773	      3.81352639	    -11.54995579	    -13.32571079	     10.14347694	      0.26453805	     -4.92120730	     -2.79148937	     -8.40959565	    -16.32620836	     20.49200241	     -9.86491117	    -12.08205017	      4.19428294	     -8.35253369
      4.77000000	     -2.45153610	     -7.85793641	    -84.30435701	      0.33856439	      0.95438364	      0.57341687	     -4.69686676	      4.03008770	    -11.61920373	    -12.60967171	     10.00627148	      0.28903678	     -5.01888155	     -2.97357941	     -8.57414484	    -16.12826069	     20.57538326	     -9.66670540	    -12.01030174	      4.26259060	     -8.28976182
      4.78000000	     -2.56705820	     -7.80003202	    -84.32552981	      0.33813088	      0.95426480	      0.57475827	     -5.05972425	      4.22936535	    -11.69469961	    -11.94342096	      9.85391263	      0.31334957	     -5.15072950	     -3.14142329	     -8.76916142	    -15.91889159	     20.65598093	     -9.38542291	    -11.96265386	      4.31120410	     -8.23479395
      4.79000000	     -2.68251853	     -7.72246842	    -84.31291861	      0.33776309	      0.95408443	      0.57602482	     -5.38413907	      4.43061841	    -11.76026217	    -11.30049817	      9.74336924	      0.32345397	     -5.22177757	     -3.30679466	     -8.89014294	    -15.76778013	     20.74551678	     -9.17675018	    -11.88981463	      4.36576060	     -8.21672728
      4.80000000	     -2.78600652	     -7.63974353	    -84.28088822	      0.33744695	      0.95388525	      0.57723013	     -5.68245149	      4.61901368	    -11.81051119	    -10.69249157	      9.66383723	      0.32729169	     -5.26056855	     -3.45568413	     -8.95184989	    -15.65767898	     20.83856223	     -9.03455764	    -11.81065557	      4.41124776	     -8.21362946
      4.81000000	     -2.87717320	     -7.59766557	    -84.26661464	      0.33714566	      0.95375935	      0.57844523	     -5.99887528	      4.79065385	    -11.84426798	    -10.13639534	      9.52693691	      0.33279615	     -5.36648691	     -3.59093075	     -9.06635834	    -15.50835290	     20.92248828	     -8.82359117	    -11.77117123	      4.45219515	     -8.22087700
      4.82000000	     -2.95414233	     -7.54190566	    -84.24016699	      0.33689503	      0.95361972	      0.57959479	     -6.27533856	      4.94237727	    -11.85239593	     -9.62283849	      9.43583244	      0.34478244	     -5.43142003	     -3.70463087	     -9.12337434	    -15.40013483	     20.99335946	     -8.66349102	    -11.71553258	      4.48283058	     -8.23995746
      4.83000000	     -3.01881578	     -7.47391408	    -84.21192115	      0.33667847	      0.95347606	      0.58067551	     -6.50626190	      5.07281408	    -11.83188326	     -9.16524237	      9.37311665	      0.35956431	     -5.46098529	     -3.79903789	     -9.13878908	    -15.32680635	     21.05542529	     -8.56236625	    -11.64772216	      4.50381545	     -8.25848885
      4.84000000	     -3.07648073	     -7.41892813	    -84.19936223	      0.33647514	      0.95337226	      0.58172184	     -6.72411307	      5.18882536	    -11.78014431	     -8.75531473	      9.28326124	      0.38504766	     -5.50565541	     -3.88315018	     -9.17697769	    -15.25040496	     21.10690380	     -8.45030940	    -11.59561338	      4.52449768	     -8.27072881
      4.85000000	     -3.11141516	     -7.33607194	    -84.19084590	      0.33629370	      0.95324447	      0.58271089	     -6.86963992	      5.26609481	    -11.71389416	     -8.42610482	      9.26901076	      0.40820392	     -5.51200189	     -3.93418040	     -9.20113274	    -15.18417010	     21.13447116	     -8.39552389	    -11.51227071	      4.52305124	     -8.31714960
      4.86000000	     -3.15299142	     -7.26686027	    -84.19920863	      0.33610423	      0.95315192	      0.58364142	     -7.00804470	      5.34630783	    -11.61338599	     -8.12646372	      9.20510288	      0.44131798	     -5.51984476	     -3.99156354	     -9.22234265	    -15.13964461	     21.16375539	     -8.32706270	    -11.45081310	      4.53151103	     -8.31840896
      4.87000000	     -3.18461781	     -7.19638723	    -84.22283951	      0.33590795	      0.95306748	      0.58451307	     -7.10952911	      5.40657387	    -11.51138929	     -7.88815966	      9.15662555	      0.48129783	     -5.51938930	     -4.03500733	     -9.25668026	    -15.10658310	     21.17886574	     -8.26251376	    -11.39500458	      4.53097730	     -8.29978629
